<svg width="16" height="16" viewBox="0 0 16 16" fill="none" xmlns="http://www.w3.org/2000/svg">
<g id="Icon L">
<path id="Vector" d="M8.00004 1.33333C4.32604 1.33333 1.33337 4.32599 1.33337 8C1.33337 11.674 4.32604 14.6667 8.00004 14.6667C11.674 14.6667 14.6667 11.674 14.6667 8C14.6667 4.32599 11.674 1.33333 8.00004 1.33333ZM8.00004 2.66666C8.16557 2.66666 8.34699 2.73442 8.57817 2.95442C8.80934 3.17442 9.06035 3.54325 9.27608 4.02864C9.44031 4.39814 9.57465 4.84911 9.69015 5.33333H6.30994C6.42543 4.84911 6.55978 4.39814 6.724 4.02864C6.93973 3.54325 7.19074 3.17442 7.42192 2.95442C7.65309 2.73442 7.83452 2.66666 8.00004 2.66666ZM5.63416 3.22265C5.59073 3.30992 5.54594 3.39543 5.50525 3.48697C5.26411 4.02955 5.07693 4.65747 4.93624 5.33333H3.38155C3.90584 4.42478 4.68996 3.68957 5.63416 3.22265ZM10.3659 3.22265C11.3101 3.68957 12.0942 4.42478 12.6185 5.33333H11.0638C10.9232 4.65747 10.736 4.02955 10.4948 3.48697C10.4541 3.39543 10.4093 3.30992 10.3659 3.22265ZM2.84119 6.66666H4.73181C4.69089 7.09792 4.66671 7.54242 4.66671 8C4.66671 8.45757 4.69089 8.90207 4.73181 9.33333H2.84119C2.73174 8.90652 2.66671 8.46174 2.66671 8C2.66671 7.53825 2.73174 7.09347 2.84119 6.66666ZM6.07817 6.66666H9.92192C9.96832 7.09505 10 7.53774 10 8C10 8.46225 9.96832 8.90494 9.92192 9.33333H6.07817C6.03176 8.90494 6.00004 8.46225 6.00004 8C6.00004 7.53774 6.03176 7.09505 6.07817 6.66666ZM11.2683 6.66666H13.1589C13.2683 7.09347 13.3334 7.53825 13.3334 8C13.3334 8.46174 13.2683 8.90652 13.1589 9.33333H11.2683C11.3092 8.90207 11.3334 8.45757 11.3334 8C11.3334 7.54242 11.3092 7.09792 11.2683 6.66666ZM3.38155 10.6667H4.93624C5.07693 11.3425 5.26411 11.9704 5.50525 12.513C5.54594 12.6046 5.59073 12.6901 5.63416 12.7773C4.68996 12.3104 3.90584 11.5752 3.38155 10.6667ZM6.30994 10.6667H9.69015C9.57465 11.1509 9.44031 11.6018 9.27608 11.9713C9.06035 12.4567 8.80934 12.8256 8.57817 13.0456C8.34699 13.2656 8.16557 13.3333 8.00004 13.3333C7.83452 13.3333 7.65309 13.2656 7.42192 13.0456C7.19074 12.8256 6.93973 12.4567 6.724 11.9713C6.55978 11.6018 6.42543 11.1509 6.30994 10.6667ZM11.0638 10.6667H12.6185C12.0942 11.5752 11.3101 12.3104 10.3659 12.7773C10.4093 12.6901 10.4541 12.6046 10.4948 12.513C10.736 11.9704 10.9232 11.3425 11.0638 10.6667Z" fill="#008F8E"/>
</g>
</svg>
