<svg width="336" height="50" viewBox="0 0 336 50" fill="none" xmlns="http://www.w3.org/2000/svg">
<path d="M104.704 3.90023C104.615 3.33453 104.419 2.78557 104.104 2.27853C103.687 1.60386 103.104 1.05911 102.419 0.68194C101.734 0.304821 100.951 0.0994873 100.138 0.0994873H76.3337C75.9256 0.0994873 75.5296 0.149781 75.1468 0.250368C74.9554 0.300606 74.7679 0.359273 74.5847 0.43474C74.219 0.577193 73.8741 0.76994 73.5595 0.996233C73.4022 1.10941 73.2532 1.23511 73.1085 1.36919C72.921 1.54519 72.7554 1.74215 72.602 1.94749C72.5211 2.05645 72.4359 2.16119 72.3677 2.27853C71.7423 3.29261 71.5679 4.4869 71.8446 5.60157C71.8913 5.78594 71.9507 5.97031 72.0233 6.15047C72.0954 6.33069 72.1807 6.50668 72.2742 6.68268L84.1762 27.895C84.7509 28.9217 85.7123 29.6632 86.8271 30.0069C87.2787 30.1448 87.7468 30.2291 88.2357 30.2291C89.9297 30.2291 91.4868 29.3321 92.2914 27.895L104.193 6.6869C104.679 5.82365 104.844 4.84727 104.699 3.90439L104.704 3.90023Z" fill="#008F8E"/>
<path d="M58.286 3.73803C57.6667 2.62954 56.762 1.72836 55.69 1.10218C54.5972 0.459094 53.3245 0.0994873 52.0012 0.0994873H21.0278C19.717 0.10797 18.4617 0.463362 17.3772 1.10218C16.3097 1.73263 15.4045 2.62954 14.7897 3.73803L0.806162 28.8062C0.707932 28.9797 0.622517 29.157 0.554207 29.3436C0.409062 29.707 0.319412 30.0879 0.276677 30.4688C0.233997 30.8497 0.242522 31.2388 0.302307 31.6153C0.387722 32.1867 0.588362 32.741 0.904337 33.2527C1.11356 33.5953 1.36551 33.9001 1.64728 34.171C1.84797 34.3615 2.06572 34.5218 2.29628 34.6701C2.85139 35.0341 3.48758 35.2836 4.16221 35.3892C4.40129 35.4275 4.64043 35.4483 4.88381 35.4483H36.5275C36.5275 35.4483 36.5401 35.4483 36.5401 35.4445L36.5484 35.4571L43.0131 47.0454C43.1154 47.2271 43.2265 47.4006 43.3502 47.5615C44.0124 48.4376 44.9727 49.038 46.0529 49.2793C46.3862 49.3554 46.7322 49.4019 47.082 49.4019H75.9971C77.2225 49.4019 78.3753 48.9324 79.2295 48.1241C79.3703 47.9889 79.5072 47.845 79.631 47.6928C79.7547 47.5407 79.8696 47.3754 79.9763 47.2063C80.0792 47.0372 80.1733 46.8593 80.2541 46.6815C80.8091 45.425 80.7497 43.978 80.0704 42.7598L58.3075 3.74229L58.286 3.73803Z" fill="#008F8E"/>
<path d="M150.452 9.36439C152.515 10.4418 154.127 12.0331 155.287 14.1461C156.446 16.259 157.028 18.8059 157.028 21.7945V41.2143H150.242V22.811C150.242 19.8643 149.499 17.6029 148.017 16.0306C146.536 14.4583 144.511 13.6702 141.95 13.6702C139.39 13.6702 137.353 14.4583 135.852 16.0306C134.352 17.6067 133.598 19.8643 133.598 22.811V41.2143H126.75V8.29076H133.598V12.056C134.72 10.7006 136.151 9.64606 137.893 8.88849C139.634 8.13086 141.487 7.75396 143.451 7.75396C146.054 7.75396 148.385 8.29077 150.448 9.36817L150.452 9.36439Z" fill="#005958"/>
<path d="M194.817 27.2881H169.526C169.725 29.9188 170.705 32.0279 172.47 33.6194C174.23 35.2147 176.393 36.0104 178.958 36.0104C182.64 36.0104 185.243 34.4759 186.767 31.4112H194.154C193.155 34.4381 191.341 36.9199 188.719 38.8501C186.097 40.7842 182.84 41.7474 178.958 41.7474C175.792 41.7474 172.96 41.0392 170.456 39.6267C167.953 38.2142 165.989 36.2194 164.569 33.6533C163.145 31.0839 162.437 28.1068 162.437 24.7221C162.437 21.3376 163.126 18.3605 164.508 15.7907C165.89 13.221 167.831 11.2413 170.334 9.84406C172.837 8.45068 175.712 7.75396 178.954 7.75396C182.196 7.75396 184.86 8.43163 187.303 9.78693C189.745 11.1423 191.647 13.042 193.01 15.4938C194.369 17.9417 195.05 20.7628 195.05 23.9493C195.05 25.1828 194.97 26.2981 194.809 27.2958L194.817 27.2881ZM187.907 21.7907C187.865 19.2818 186.966 17.2717 185.205 15.7565C183.444 14.245 181.262 13.4874 178.656 13.4874C176.294 13.4874 174.269 14.2336 172.589 15.7298C170.908 17.2222 169.905 19.2438 169.583 21.7945H187.907V21.7907Z" fill="#005958"/>
<path d="M213.439 35.1156L222.81 8.28693H230.078L217.462 41.2066H209.293L196.738 8.28693H204.068L213.439 35.1156Z" fill="#005958"/>
<path d="M248.644 35.1156L258.014 8.28693H265.283L252.667 41.2066H244.498L231.943 8.28693H239.273L248.644 35.1156Z" fill="#005958"/>
<path d="M274.535 39.6267C272.013 38.2142 270.03 36.2194 268.587 33.6533C267.144 31.0839 266.424 28.1068 266.424 24.7221C266.424 21.3376 267.163 18.41 268.648 15.8212C270.129 13.2323 272.15 11.2413 274.715 9.84784C277.276 8.45445 280.143 7.75779 283.305 7.75779C286.467 7.75779 289.334 8.45445 291.895 9.84784C294.455 11.2413 296.48 13.2323 297.962 15.8212C299.443 18.41 300.185 21.3796 300.185 24.7221C300.185 28.0647 299.424 31.0341 297.904 33.6232C296.38 36.2118 294.31 38.2142 291.688 39.6267C289.065 41.043 286.172 41.7474 283.006 41.7474C279.84 41.7474 277.058 41.0392 274.535 39.6267ZM287.963 34.5787C289.506 33.7409 290.758 32.4887 291.718 30.8136C292.679 29.1422 293.161 27.1091 293.161 24.7184C293.161 22.3275 292.702 20.3059 291.78 18.6536C290.857 17.0014 289.636 15.7565 288.116 14.9189C286.593 14.0814 284.951 13.6625 283.19 13.6625C281.429 13.6625 279.795 14.0814 278.294 14.9189C276.794 15.7565 275.599 17.0014 274.719 18.6536C273.839 20.3059 273.398 22.3275 273.398 24.7184C273.398 28.2628 274.31 31.004 276.132 32.9342C277.953 34.8682 280.246 35.8314 283.01 35.8314C284.771 35.8314 286.424 35.4122 287.967 34.5749L287.963 34.5787Z" fill="#005958"/>
<path d="M329.174 9.36439C331.237 10.4418 332.849 12.0331 334.008 14.1461C335.168 16.259 335.75 18.8059 335.75 21.7945V41.2143H328.963V22.811C328.963 19.8643 328.22 17.6029 326.739 16.0306C325.258 14.4583 323.233 13.6702 320.672 13.6702C318.112 13.6702 316.075 14.4583 314.574 16.0306C313.074 17.6067 312.324 19.8643 312.324 22.811V41.2143H305.476V8.29076H312.324V12.056C313.445 10.7006 314.877 9.64606 316.618 8.88849C318.36 8.13086 320.213 7.75396 322.177 7.75396C324.779 7.75396 327.111 8.29077 329.174 9.36817V9.36439Z" fill="#005958"/>
</svg>
